<svg fill="none" height="32" viewBox="0 0 32 32" width="32" xmlns="http://www.w3.org/2000/svg"><path d="m27 0h-22c-2.76142 0-5 2.23858-5 5v22c0 2.7614 2.23858 5 5 5h22c2.7614 0 5-2.2386 5-5v-22c0-2.76142-2.2386-5-5-5z" fill="#f00073"/><g fill="#fff"><path d="m16 9.2h3.4c.8 0 1.2.2 1.5.3.4.2.7.3 1 .6s.5.6.6 1c.1.3.2.7.3 1.5v3.4 3.4c0 .8-.2 1.2-.3 1.5-.2.4-.3.7-.6 1s-.6.5-1 .6c-.3.1-.7.2-1.5.3-.9 0-1.1 0-3.4 0s-2.5 0-3.4 0c-.8 0-1.2-.2-1.5-.3-.4-.2-.7-.3-1-.6s-.5-.6-.6-1c-.1-.3-.2-.7-.3-1.5 0-.9 0-1.1 0-3.4s0-2.5 0-3.4c0-.8.2-1.2.3-1.5.2-.4.3-.7.6-1s.6-.5 1-.6c.3-.1.7-.2 1.5-.3zm0-1.5c-2.3 0-2.5 0-3.4 0s-1.5.2-2 .4-1 .5-1.5 1-.7.9-1 1.5c-.2.5-.3 1.1-.4 2v3.4 3.4c0 .9.2 1.5.4 2s.5 1 1 1.5.9.7 1.5 1c.5.2 1.1.3 2 .4h3.4 3.4c.9 0 1.5-.2 2-.4s1-.5 1.5-1 .7-.9 1-1.5c.2-.5.3-1.1.4-2 0-.9 0-1.2 0-3.4s0-2.5 0-3.4-.2-1.5-.4-2-.5-1-1-1.5-.9-.7-1.5-1c-.5-.2-1.1-.3-2-.4-.9 0-1.1 0-3.4 0z"/><path d="m16 11.7c-2.4 0-4.3 1.9-4.3 4.3s1.9 4.3 4.3 4.3 4.3-1.9 4.3-4.3-1.9-4.3-4.3-4.3zm0 7.1c-1.5 0-2.8-1.2-2.8-2.8 0-1.5 1.2-2.8 2.8-2.8 1.5 0 2.8 1.2 2.8 2.8 0 1.5-1.3 2.8-2.8 2.8z"/><path d="m20.4 12.6c.5523 0 1-.4477 1-1s-.4477-1-1-1-1 .4477-1 1 .4477 1 1 1z"/></g></svg>